<svg xmlns="http://www.w3.org/2000/svg" width="218.71" height="145.348" viewBox="0 0 218.71 145.348"><defs><style>.a{fill:#f0f0f0;}.b{fill:#fff;}.c{fill:#3f3d56;}.d{fill:#e5e5e5;}.e{fill:#9e616a;}.f{fill:#2f2e41;}.g{opacity:0.2;}.h{fill:#9cd1ef;}</style></defs><g transform="translate(0 0)"><path class="a" d="M435.8,421.865c7.5-13.185,21.792-23.309,36.927-22.333a69.878,69.878,0,0,0-18.378,44.316c-.248,6.356.137,13.451-4.083,18.21-2.626,2.961-6.639,4.4-10.586,4.7a46.392,46.392,0,0,1-11.786-1.122l-.945.29C426.593,450.76,428.306,435.05,435.8,421.865Z" transform="translate(-357.35 -338.216)"/><path class="b" d="M472.728,398.9a59.727,59.727,0,0,0-26.594,25.36,25.722,25.722,0,0,0-2.815,7.551,14.751,14.751,0,0,0,.768,7.726c.831,2.312,1.949,4.58,2.2,7.054a9.033,9.033,0,0,1-2.418,6.98c-2.113,2.367-4.95,3.834-7.775,5.173-3.136,1.486-6.417,2.979-8.639,5.752-.269.336-.775-.1-.506-.437,3.865-4.824,10.481-5.731,15.068-9.618a9.148,9.148,0,0,0,3.646-7.177c-.089-2.53-1.24-4.871-2.1-7.2a15.74,15.74,0,0,1-1.032-7.526,23.776,23.776,0,0,1,2.515-7.631A57.942,57.942,0,0,1,455.7,410.257a60.782,60.782,0,0,1,16.807-11.992C472.9,398.079,473.112,398.713,472.728,398.9Z" transform="translate(-357.327 -337.265)"/><path class="b" d="M505.8,457.078a8.961,8.961,0,0,1-2.7-11.284c.2-.383.8-.1.6.287a8.3,8.3,0,0,0,2.537,10.491C506.582,456.825,506.143,457.329,505.8,457.078Z" transform="translate(-415.273 -373.753)"/><path class="b" d="M498.232,551.737a17.271,17.271,0,0,0,10.935-6.233c.27-.335.776.1.506.437a17.964,17.964,0,0,1-11.392,6.463C497.854,552.465,497.808,551.8,498.232,551.737Z" transform="translate(-412.048 -450.584)"/><path class="b" d="M573.071,432.415a5.072,5.072,0,0,0,4.534,1.616c.426-.066.472.6.049.667a5.684,5.684,0,0,1-5.019-1.777.346.346,0,0,1-.035-.471A.336.336,0,0,1,573.071,432.415Z" transform="translate(-469.485 -363.527)"/><path class="a" d="M500.888,552.831c-.265.049-.529.1-.8.152a66.8,66.8,0,0,0-10.444,2.887c-.264.092-.531.189-.792.289a70.422,70.422,0,0,0-22.148,13.478,68.4,68.4,0,0,0-7.174,7.517c-3.034,3.707-6.029,7.968-9.994,10.385a11.731,11.731,0,0,1-1.276.692l-22.84-9.474c-.041-.047-.085-.09-.126-.138l-.929-.337c.1-.146.214-.3.318-.442.06-.085.125-.168.184-.253.042-.056.083-.112.117-.165.014-.019.028-.037.039-.051.034-.053.072-.1.1-.146q.924-1.257,1.869-2.5c0-.005,0-.005.009-.008a100.552,100.552,0,0,1,16.328-17.279c.184-.149.371-.3.565-.449a65.232,65.232,0,0,1,8.821-5.967,57.691,57.691,0,0,1,5.233-2.588,47.978,47.978,0,0,1,14.534-3.707c9.986-.927,20.157,1.349,27.816,7.623C500.5,552.506,500.694,552.665,500.888,552.831Z" transform="translate(-355.396 -449.922)"/><path class="b" d="M501.78,575.754a59.726,59.726,0,0,0-36.5,4.237,25.725,25.725,0,0,0-6.794,4.334,14.753,14.753,0,0,0-4.039,6.631c-.728,2.346-1.2,4.831-2.487,6.959a9.032,9.032,0,0,1-6.133,4.118c-3.112.618-6.261.081-9.322-.551-3.4-.7-6.918-1.485-10.361-.608-.417.106-.558-.547-.141-.653,5.991-1.525,11.819,1.734,17.822,1.393a9.148,9.148,0,0,0,7.232-3.535c1.453-2.074,1.943-4.635,2.659-7.017a15.74,15.74,0,0,1,3.707-6.63,23.779,23.779,0,0,1,6.6-4.579,57.946,57.946,0,0,1,17.325-5.277,60.778,60.778,0,0,1,20.639.544c.421.084.21.719-.208.635Z" transform="translate(-356.46 -472.576)"/><path class="b" d="M611.945,556.258a8.961,8.961,0,0,1,4.635-10.638c.387-.188.7.4.31.593a8.3,8.3,0,0,0-4.291,9.9C612.724,556.528,612.07,556.667,611.945,556.258Z" transform="translate(-499.548 -450.738)"/><path class="b" d="M549.731,642.4a17.271,17.271,0,0,0,12.484,1.607c.417-.1.558.549.141.653a17.965,17.965,0,0,1-12.987-1.7C548.992,642.756,549.356,642.2,549.731,642.4Z" transform="translate(-451.533 -525.261)"/><path class="b" d="M694.189,575.193a5.072,5.072,0,0,0,2.647,4.02c.38.2.015.764-.362.562a5.684,5.684,0,0,1-2.938-4.441.346.346,0,0,1,.256-.4A.336.336,0,0,1,694.189,575.193Z" transform="translate(-562.67 -473.336)"/><path class="c" d="M226.366,515.542c-3.2-15.466-7.2-20.623-7.2-20.623l-1.527-1.185-1.837-1.427.009-.183-.436-.148-.1-.08-.168-.129-.027.029-.057.059-8.312-2.825-10.545-3.582-4.883-6.347a8.446,8.446,0,0,0-6.757-3.3l-15.6.115a8.446,8.446,0,0,0-5.681,2.253L153,487.683l-15.972,7.628-.027-.027-.168.12-2.468,1.18.1.53-1.527,1.1s-4,4.8-7.2,19.189c-.814,3.662-1.214,11.517-1.359,21.2a3.695,3.695,0,0,0,3.693,3.749h95.96a3.7,3.7,0,0,0,3.693-3.746C227.588,528.072,227.187,519.513,226.366,515.542Z" transform="translate(-124.382 -397.003)"/><path class="d" d="M573.633,191.732a12.515,12.515,0,1,0,0,25.03H666.9a12.515,12.515,0,1,0,0-25.03Z" transform="translate(-460.703 -178.244)"/><path class="b" d="M582.116,202.747a9.982,9.982,0,0,0,0,19.964h93.265a9.982,9.982,0,1,0,0-19.964Z" transform="translate(-469.186 -186.727)"/><circle class="e" cx="20.431" cy="20.431" r="20.431" transform="translate(34.364 32.081)"/><path class="f" d="M339.1,444.035q-.131-.288-.261-.578c.033,0,.067.006.1.007Z" transform="translate(-289.529 -372.092)"/><path class="f" d="M244.555,244.2a5.687,5.687,0,0,1,3.562-1.54c1.321.043,2.661,1.236,2.387,2.529a21,21,0,0,1,25.267-9.475c3.284,1.159,6.5,3.476,7.258,6.876a6.191,6.191,0,0,0,.78,2.538,2.9,2.9,0,0,0,3.084.781l.032-.01a.965.965,0,0,1,1.166,1.363L287.164,249a7.446,7.446,0,0,0,3.547-.075.964.964,0,0,1,1.024,1.5,16.812,16.812,0,0,1-13.405,6.891c-3.712-.023-7.463-1.3-11.076-.448a9.621,9.621,0,0,0-6.471,13.506c-1.11-1.214-3.255-.927-4.391.264a6.022,6.022,0,0,0-1.315,4.608,21.377,21.377,0,0,0,2.195,7.176A21.454,21.454,0,0,1,244.555,244.2Z" transform="translate(-210.759 -211.193)"/><path class="g" d="M87.464,495.253l5.731,31.179,3.438.3Z" transform="translate(-67.354 -381.384)"/><path class="g" d="M331.3,485.026l-5.731,33.508-3.438.322Z" transform="translate(-248.064 -373.508)"/><path class="h" d="M254.055,155.586a2.037,2.037,0,0,1-2.726-1.2,2.069,2.069,0,0,1,1.084-2.822,2.172,2.172,0,0,1,1.642,4.018Zm-2.1-6.319-.874.365a.942.942,0,0,1-1.2-.439l-.043-.085a7.642,7.642,0,0,1-.318-6.121c.676-2.122.956-3.614.392-4.965-.653-1.563-2.046-2.052-3.823-1.343a3.249,3.249,0,0,0-1.451.821,1.245,1.245,0,0,1-.9.366,1.2,1.2,0,0,1-.862-.378,1.23,1.23,0,0,1-.008-1.678,9.55,9.55,0,0,1,3.229-2.217c3.818-1.594,5.74.759,6.62,2.866.86,2.06.376,3.972-.4,6.448a6.4,6.4,0,0,0,.127,5.1.938.938,0,0,1-.489,1.262Z" transform="translate(-215.372 -133.069)"/><path class="h" d="M641.5,269.128H622.945a.447.447,0,1,1,0-.894H641.5a.447.447,0,1,1,0,.894Z" transform="translate(-507.97 -237.157)"/><path class="h" d="M743.883,269.776H725.327a.447.447,0,1,1,0-.894h18.556a.447.447,0,1,1,0,.894Z" transform="translate(-586.812 -237.656)"/><path class="h" d="M846.264,270.424H827.708a.447.447,0,1,1,0-.894h18.556a.447.447,0,1,1,0,.894Z" transform="translate(-665.654 -238.155)"/><path class="h" d="M948.646,271.072H930.09a.447.447,0,1,1,0-.894h18.556a.447.447,0,0,1,0,.894Z" transform="translate(-744.496 -238.654)"/><circle class="h" cx="3.449" cy="3.449" r="3.449" transform="translate(120.763 20.96)"/><circle class="h" cx="3.449" cy="3.449" r="3.449" transform="translate(144.445 20.96)"/><circle class="h" cx="3.449" cy="3.449" r="3.449" transform="translate(168.127 20.96)"/><circle class="h" cx="3.449" cy="3.449" r="3.449" transform="translate(191.809 20.96)"/></g></svg>